<?xml version="1.0"?>
<svg width="21.411" height="21.411" xmlns="http://www.w3.org/2000/svg" xmlns:svg="http://www.w3.org/2000/svg">
 <g>
  <title>Layer 1</title>
  <g id="svg_1">
   <g id="svg_2">
    <path id="svg_3" fill="#ffffff" d="m15.736,17.386999c-0.138,-0.042999 -0.278,-0.085999 -0.42,-0.130999c0.071,-0.306 0.139,-0.641001 0.199,-0.994001c0.292999,-0.199999 0.585999,-0.407 0.874,-0.619999c0.014999,0.184 0.025,0.360001 0.034,0.535c-0.225,0.433001 -0.453,0.841999 -0.687,1.209999l0,0zm-7.853,-13.740999c0.167,-0.129 0.334,-0.249 0.497,-0.364c0.007,-0.085 0.015,-0.165 0.023,-0.243c0.163,-0.063 0.324,-0.125 0.483,-0.182c0.191,0.252 0.411,0.566 0.650001,0.93c-0.076,0.079 -0.152,0.16 -0.229,0.243c-0.258,0.088 -0.52,0.18 -0.781,0.273c0.03,-0.283 0.063,-0.546 0.1,-0.783c-0.101001,0.162 -0.203,0.334 -0.307,0.514c-0.179,0.006 -0.358,0.013 -0.535,0.02c0.032,-0.143 0.065,-0.279 0.099,-0.408l0,0zm13.407001,6.903c-0.256001,0.311 -0.555,0.64 -0.891001,0.983c-0.006001,0.206 -0.014,0.414001 -0.021,0.619c-0.127001,0.179 -0.257999,0.357 -0.396,0.539001c-0.131001,-0.537001 -0.279001,-1.095 -0.451,-1.664001c-0.191,-0.303 -0.396,-0.612 -0.613001,-0.926c-0.505999,-0.126 -1.054998,-0.254001 -1.632999,-0.386001c-0.17,-0.164 -0.346001,-0.327 -0.524,-0.492c-0.086,0.052 -0.17,0.103 -0.256001,0.154c0.135,0.325999 0.267,0.651999 0.392,0.978999c0.195,-0.106 0.389,-0.212999 0.575001,-0.316999c0.254,0.217999 0.499001,0.433 0.733999,0.643c-0.695999,0.487 -1.463999,0.999001 -2.272999,1.516c-0.385,-0.844999 -0.808001,-1.726 -1.253,-2.601c-0.092,0.014 -0.184,0.029 -0.275001,0.044001c0.457,1.042 0.897,2.092999 1.279,3.089999c0.422001,-0.212999 0.832001,-0.426 1.229,-0.634999c-0.135,0.471 -0.281,0.94 -0.436001,1.399c-0.42,0.394 -0.853999,0.782 -1.290999,1.160999c0.021,0.533 0.032001,1.043 0.03,1.514001c-0.243,0.167 -0.485,0.328999 -0.728999,0.486c-0.498,0.667999 -0.990001,1.246 -1.457001,1.692999c-0.391999,0.051001 -0.781,0.098 -1.168,0.143c-0.290999,-0.455999 -0.636999,-1.078999 -1.013,-1.818998c0.089,-0.339001 0.185,-0.700001 0.28,-1.084001c-0.237,-0.666 -0.488,-1.394 -0.742,-2.149c-0.851,0.052 -1.693,0.097 -2.516,0.134c-0.476,-0.448 -0.946,-0.905 -1.404,-1.364c0.06,-0.736 0.135,-1.488 0.222,-2.236c0.447,-0.558 0.909,-1.115999 1.373,-1.664c0.875999,-0.162 1.771,-0.319 2.66,-0.468c0.056,0.229 0.111,0.46 0.167,0.692c0.365,0.233 0.73,0.471 1.098001,0.709c0.141,-0.195 0.276999,-0.389 0.414,-0.579c0.557,0.144 1.107,0.29 1.649,0.437c0.138,-0.084001 0.274,-0.167 0.411,-0.249001c0.056,-0.204 0.106999,-0.405 0.16,-0.604c-0.366,-0.068 -0.739,-0.138 -1.115001,-0.205999c-0.127,-0.207 -0.254999,-0.414001 -0.382,-0.618001c-0.091,-0.043 -0.181,-0.087 -0.269,-0.132c-0.07,0.253 -0.141999,0.511 -0.216,0.772c-0.172,-0.21 -0.342999,-0.417 -0.515,-0.622c0.009001,-0.17 0.018001,-0.338 0.023001,-0.504c-0.225,-0.169 -0.449,-0.334 -0.67,-0.496c-0.134,-0.062 -0.266,-0.123 -0.397,-0.183c0.013,0.159 0.022,0.321 0.036,0.485c0.276999,0.176 0.558,0.355 0.839,0.538c-0.142,0.156 -0.285,0.316 -0.431,0.479c-0.205,-0.261 -0.408,-0.517 -0.607,-0.767c-0.145,-0.157 -0.287,-0.312 -0.429999,-0.464c-0.332001,0.153 -0.667001,0.312 -1.002001,0.472c-0.24,0.346 -0.483,0.702 -0.724999,1.065c-0.354,-0.05 -0.704,-0.098 -1.051,-0.145c-0.005,-0.431 -0.007,-0.852 -0.003,-1.255c0.437,0.018 0.879,0.038 1.327,0.062c-0.134,-0.212 -0.266,-0.42 -0.396,-0.622c-0.076,-0.165 -0.151,-0.327 -0.225,-0.483c0.334001,-0.102 0.669001,-0.203 1.002,-0.299c0.190001,-0.213 0.376,-0.418 0.561001,-0.614c0.146,-0.009 0.292999,-0.019 0.438,-0.028c-0.028,-0.109 -0.057,-0.216 -0.085,-0.319c0.096,-0.098 0.188,-0.19 0.28,-0.283c0.070001,0.152 0.141,0.311 0.212,0.476c0.406,0.008 0.812,0.02 1.216001,0.033c0.104,-0.23 0.201,-0.448 0.296,-0.652c0.153,0.04 0.308001,0.081 0.462,0.121c-0.064,-0.144 -0.127999,-0.281 -0.191,-0.412c0.225,-0.046 0.442,-0.09 0.66,-0.132c-0.079,-0.059 -0.158,-0.115 -0.235999,-0.17c-0.193001,0.031 -0.392,0.065 -0.592,0.1c-0.084001,-0.116 -0.166,-0.226 -0.248,-0.33c-0.011001,0 -0.021,-0.001 -0.031,-0.001c0.004,-0.008 0.007999,-0.015 0.013,-0.023c-0.033,-0.043 -0.068,-0.085 -0.103,-0.124c0.075,-0.031 0.15,-0.062 0.224,-0.09c0.059,-0.1 0.106,-0.174 0.159,-0.255c-0.072001,-0.006 -0.146,-0.013 -0.219001,-0.019c-0.103999,0.063 -0.210999,0.135 -0.32,0.21c-0.088,0.114 -0.18,0.243 -0.276,0.381c0.12,0.079 0.241,0.159 0.362,0.243c-0.1,0.204 -0.204,0.43 -0.316,0.672c-0.181001,0.052 -0.363,0.104 -0.548,0.158c-0.104,-0.251 -0.207,-0.484 -0.306,-0.699c-0.207,0.081 -0.419001,0.164 -0.632,0.252c-0.099,-0.044 -0.196,-0.085 -0.293,-0.127c0.022,-0.213 0.046,-0.41 0.07,-0.585c0.178,-0.082 0.352,-0.157 0.522,-0.228c0.146,-0.187 0.286,-0.341 0.416,-0.46c0.33,-0.067 0.646999,-0.122 0.948999,-0.167c0.768001,0.035 1.568,0.091 2.379001,0.159c1.125,-0.038 2.486999,-0.087 3.088,-0.116c-1.820001,-1.433 -4.114,-2.295 -6.611001,-2.295c-2.547999,0 -4.885,0.894 -6.723,2.38c0.123,0.017 0.245,0.035 0.369,0.054c0.073,0.183 0.156,0.381 0.254,0.603c0.032,0.113 0.067,0.234 0.105,0.359c-0.194,0.185 -0.385,0.385 -0.571,0.598c-0.039,0.105 -0.077,0.211 -0.114,0.321c-0.142,0.08 -0.28,0.162 -0.418,0.244c-0.09,0.299 -0.173,0.615 -0.25,0.943c-0.169,-0.024 -0.336,-0.047 -0.497,-0.069c-0.113,-0.654 -0.178,-1.216 -0.23,-1.742c-0.497,0.571 -0.94,1.191 -1.309,1.86c0.055,-0.046 0.106,-0.091 0.162,-0.136c0.143,0.723 0.315,1.516 0.549,2.379c-0.47,0.303 -0.892,0.604 -1.256,0.894c-0.265,0.245001 -0.493,0.486 -0.69,0.717c-0.051,0.426001 -0.086,0.859 -0.086,1.299001c0,0.912999 0.127,1.794999 0.341,2.641999c0.19,0.069 0.397,0.137 0.627,0.204c0.35,0.4 0.749,0.806 1.188,1.207c0.096,0.287 0.198,0.569 0.305,0.847c0.57,0.354 1.193,0.698 1.842,1.021c-0.196,0.607 -0.347,1.136999 -0.46,1.594c-0.253,0.007999 -0.498,0.014 -0.74,0.018c1.938,1.959 4.628,3.174 7.603,3.174c5.812,0 10.532,-4.636999 10.688,-10.410999c-0.041,-0.151 -0.070999,-0.298 -0.112999,-0.451z"/>
   </g>
  </g>
  <g id="svg_4"/>
  <g id="svg_5"/>
  <g id="svg_6"/>
  <g id="svg_7"/>
  <g id="svg_8"/>
  <g id="svg_9"/>
  <g id="svg_10"/>
  <g id="svg_11"/>
  <g id="svg_12"/>
  <g id="svg_13"/>
  <g id="svg_14"/>
  <g id="svg_15"/>
  <g id="svg_16"/>
  <g id="svg_17"/>
  <g id="svg_18"/>
 </g>
</svg>