<?xml version="1.0"?>
<svg width="447.438" height="447.437" xmlns="http://www.w3.org/2000/svg" xmlns:svg="http://www.w3.org/2000/svg">
 <g>
  <title>Layer 1</title>
  <g id="svg_1">
   <g id="svg_2">
    <g id="svg_3">
     <path fill="#ffffff" id="svg_4" d="m393.333008,188.270996c41.223999,-32.703003 57.269012,-60.609009 47.687012,-82.945c-2.511017,-5.853996 -6.542999,-10.695 -12.055023,-14.526993c0.003021,-0.160004 0.014008,-0.316002 0.014008,-0.477005c0,-18.789001 -15.22998,-34.022999 -34.022003,-34.022999c-15.580994,0 -28.703979,10.477001 -32.737976,24.764004c-17.445007,1.632996 -37.380005,5.185997 -58.980011,10.548996c-22.968018,-17.359001 -51.373001,-27.298996 -81.444,-27.298996c-18.318008,0 -36.20401,3.688995 -53.165009,10.964996c-33.140991,14.217003 -58.760994,40.486 -72.142998,73.970993c-4.528999,11.336014 -7.466995,23.039001 -8.827995,34.848007c-27.82901,17.722 -50.268013,35.528 -65.159012,51.746994c-20.125,21.919983 -26.796,41.270996 -19.827,57.519989c7.227,16.846008 26.792,25.312012 58.325001,25.312012c10.278999,0 21.831001,-0.899994 34.641998,-2.703003c13.984001,-1.968994 29.032997,-4.960999 44.834,-8.88501c22.964005,17.35202 51.363007,27.287018 81.427994,27.287018c18.31601,0 36.206009,-3.688995 53.166,-10.964996c46.037994,-19.748016 75.481995,-62.225006 80.878998,-108.742004c13.748016,-8.757996 26.309021,-17.610992 37.386017,-26.397003zm-18.64502,-23.50499c-5.993011,4.755997 -12.471008,9.537003 -19.359009,14.31601c-1.684998,-11.104004 -4.786987,-22.170013 -9.415985,-32.960999c-4.596008,-10.711014 -10.470001,-20.602005 -17.390015,-29.533005c15.354004,-3.191002 28.34201,-5.018005 39.188019,-5.883003c6.205994,8.280998 16.097992,13.640999 27.242981,13.640999c6.893005,0 13.302002,-2.056999 18.660004,-5.580002c-0.355988,5.218994 -6.842987,20.550995 -38.925995,46zm-250.346985,-4.387009c10.406998,-26.042999 30.334,-46.474998 56.108994,-57.532997c13.201996,-5.662003 27.110016,-8.535004 41.33902,-8.535004c42.070969,0 79.968979,24.980003 96.551987,63.637001c5.520996,12.871002 8.252014,26.248001 8.479004,39.457001c-25.77301,15.427994 -55.35199,30.430008 -86.939011,43.979996c-31.595993,13.554001 -62.854004,24.646011 -91.800995,32.688004c-9.479004,-9.359985 -17.266998,-20.602997 -22.730003,-33.339005c-11.057999,-25.772995 -11.416,-54.311996 -1.008995,-80.354996zm-32.885002,125.88501c-46.336002,6.520996 -60.074001,-2.067993 -61.215002,-4.729004c-2.140999,-4.985992 8.840002,-27.806992 58.088003,-61.901993c1.722,11.194992 4.865997,22.248001 9.448997,32.931992c4.596001,10.716003 10.471001,20.605011 17.392998,29.539001c-8.212997,1.696991 -16.138,3.095001 -23.714996,4.160004zm171.783012,9.574005c-13.20401,5.664001 -27.110001,8.533997 -41.339005,8.533997c-14.645996,0 -28.781006,-3.033997 -41.692993,-8.609985c23.167999,-7.39801 47.276001,-16.416016 71.5,-26.808014c24.188004,-10.375 47.297989,-21.610001 68.597,-33.278c-9.640015,26.100998 -29.538025,48.356979 -57.065002,60.162003z"/>
     <path fill="#ffffff" id="svg_5" d="m394.95401,286.171997c-28.940002,0 -52.484985,23.542999 -52.484985,52.483002c0,28.937988 23.544983,52.483002 52.484985,52.483002c28.937988,0 52.483002,-23.545013 52.483002,-52.483002c0.000977,-28.940002 -23.542023,-52.483002 -52.483002,-52.483002z"/>
     <circle fill="#ffffff" id="svg_6" r="22.089" cy="90.103" cx="73.224"/>
    </g>
   </g>
  </g>
  <g id="svg_7"/>
  <g id="svg_8"/>
  <g id="svg_9"/>
  <g id="svg_10"/>
  <g id="svg_11"/>
  <g id="svg_12"/>
  <g id="svg_13"/>
  <g id="svg_14"/>
  <g id="svg_15"/>
  <g id="svg_16"/>
  <g id="svg_17"/>
  <g id="svg_18"/>
  <g id="svg_19"/>
  <g id="svg_20"/>
  <g id="svg_21"/>
 </g>
</svg>