<?xml version="1.0"?>
<svg width="612.001" height="612.001" xmlns="http://www.w3.org/2000/svg" xmlns:svg="http://www.w3.org/2000/svg">
 <g>
  <title>Layer 1</title>
  <g id="svg_1">
   <g id="svg_2">
    <path fill="#ffffff" id="svg_3" d="m10.141,365.44101l283.090995,-198.021011c-0.893005,-7.175003 -1.347992,-14.427994 -1.347992,-21.740997c0,-12.716995 1.356995,-25.257004 4.047974,-37.511002l-293.569976,247.14801c-6.234,5.247986 1.102,14.79599 7.779,10.125z"/>
    <path fill="#ffffff" id="svg_4" d="m256.68399,609.638977l247.14801,-293.570007c-12.253021,2.690002 -24.792999,4.046997 -37.511017,4.046997c-7.313019,0 -14.56601,-0.454987 -21.740997,-1.347992l-198.020981,283.09201c-4.669998,6.677002 4.876999,14.012024 10.124985,7.778992z"/>
    <path fill="#ffffff" id="svg_5" d="m466.321991,0.001c-37.282013,0 -74.565002,14.223 -103.01001,42.667999c-8.139984,8.139999 -15.110992,17.007 -20.921997,26.388c-14.957001,24.145004 -22.192993,51.710999 -21.716003,79.168999c0.47702,27.473007 8.680023,54.832001 24.606995,78.548996l-9.901978,11.017014l-9.830994,10.938995l-254.798004,283.495987c-5.400002,6.007996 3.015999,14.424988 9.025002,9.025024l283.494987,-254.798004l10.938995,-9.830994l11.016998,-9.902008c23.71701,15.927002 51.076019,24.130005 78.549011,24.608002c0.848999,0.015015 1.697998,0.029999 2.546997,0.029999c26.613007,0 53.222992,-7.252991 76.623016,-21.747009c9.380981,-5.811005 18.247009,-12.780975 26.388,-20.921997c56.890991,-56.890991 56.890991,-149.12899 0,-206.020992c-28.447021,-28.44501 -65.730011,-42.66801 -103.011017,-42.66801z"/>
   </g>
  </g>
  <g id="svg_6"/>
  <g id="svg_7"/>
  <g id="svg_8"/>
  <g id="svg_9"/>
  <g id="svg_10"/>
  <g id="svg_11"/>
  <g id="svg_12"/>
  <g id="svg_13"/>
  <g id="svg_14"/>
  <g id="svg_15"/>
  <g id="svg_16"/>
  <g id="svg_17"/>
  <g id="svg_18"/>
  <g id="svg_19"/>
  <g id="svg_20"/>
 </g>
</svg>